<?xml version="1.0" encoding="UTF-8" standalone="no"?>
<svg
   xmlns:dc="http://purl.org/dc/elements/1.1/"
   xmlns:cc="http://creativecommons.org/ns#"
   xmlns:rdf="http://www.w3.org/1999/02/22-rdf-syntax-ns#"
   xmlns:svg="http://www.w3.org/2000/svg"
   xmlns="http://www.w3.org/2000/svg"
   viewBox="0 0 302.35999 302.35999"
   height="302.35999"
   width="302.35999"
   xml:space="preserve"
   id="svg2"
   version="1.1"><metadata
     id="metadata8"><rdf:RDF><cc:Work
         rdf:about=""><dc:format>image/svg+xml</dc:format><dc:type
           rdf:resource="http://purl.org/dc/dcmitype/StillImage" /></cc:Work></rdf:RDF></metadata><defs
     id="defs6"><clipPath
       id="clipPath26"
       clipPathUnits="userSpaceOnUse"><path
         id="path24"
         d="M 1133.86,85.0391 C 555.535,85.0391 85.0391,555.539 85.0391,1133.86 c 0,578.31 470.4959,1048.81 1048.8209,1048.81 578.32,0 1048.81,-470.5 1048.81,-1048.81 0,-578.321 -470.49,-1048.8209 -1048.81,-1048.8209 z" /></clipPath></defs><g
     transform="matrix(1.3333333,0,0,-1.3333333,0,302.36)"
     id="g10"><g
       transform="scale(0.1)"
       id="g12"><path
         id="path14"
         style="fill:#ffffff;fill-opacity:1;fill-rule:nonzero;stroke:none"
         d="M 1133.86,2235.51 C 526.406,2235.51 32.207,1741.31 32.207,1133.86 32.207,526.398 526.406,32.2109 1133.86,32.2109 c 607.46,0 1101.66,494.1871 1101.66,1101.6491 0,607.45 -494.2,1101.65 -1101.66,1101.65" /><path
         id="path16"
         style="fill:#0b3b6a;fill-opacity:1;fill-rule:nonzero;stroke:none"
         d="m 2182.67,1133.86 c 0,578.31 -470.49,1048.82 -1048.81,1048.82 -578.325,0 -1048.8209,-470.51 -1048.8209,-1048.82 0,-144.649 29.4379,-282.551 82.6289,-408.032 H 2100.05 c 53.19,125.481 82.62,263.383 82.62,408.032" /><path
         id="path18"
         style="fill:#0b3b6a;fill-opacity:1;fill-rule:nonzero;stroke:none"
         d="M 1133.86,2235.51 C 526.406,2235.51 32.207,1741.31 32.207,1133.86 32.207,526.398 526.406,32.2109 1133.86,32.2109 c 607.46,0 1101.66,494.1871 1101.66,1101.6491 0,607.45 -494.2,1101.65 -1101.66,1101.65 z M 1133.86,0 C 508.645,0 0,508.641 0,1133.86 c 0,625.2 508.645,1133.85 1133.86,1133.85 625.21,0 1133.85,-508.65 1133.85,-1133.85 C 2267.71,508.641 1759.07,0 1133.86,0" /><g
         id="g20"><g
           clip-path="url(#clipPath26)"
           id="g22"><path
             id="path28"
             style="fill:#ed1c24;fill-opacity:1;fill-rule:nonzero;stroke:none"
             d="M 2279.85,755.641 H -12.1367 V 709.73 H 2279.85 v 45.911" /><path
             id="path30"
             style="fill:#ffffff;fill-opacity:1;fill-rule:nonzero;stroke:none"
             d="M 2279.85,801.559 H -12.1367 V 755.641 H 2279.85 v 45.918" /><path
             id="path32"
             style="fill:#00a650;fill-opacity:1;fill-rule:nonzero;stroke:none"
             d="M 2279.85,846.602 H -12.1367 V 800.68 H 2279.85 v 45.922" /></g></g><path
         id="path34"
         style="fill:#ffffff;fill-opacity:1;fill-rule:nonzero;stroke:none"
         d="m 1133.86,76.332 c -253.481,0 -459.708,206.219 -459.708,459.688 0,253.48 206.227,459.699 459.708,459.699 253.47,0 459.7,-206.219 459.7,-459.699 0,-253.469 -206.23,-459.688 -459.7,-459.688" /><path
         id="path36"
         style="fill:#ffffff;fill-opacity:1;fill-rule:nonzero;stroke:none"
         d="m 415.066,1737.4 c 55.68,0 111.36,0 167.043,0 0,-15.73 0,-31.45 0,-47.18 -39.597,0 -79.187,0 -118.781,0 0,-16.74 0,-33.47 0,-50.21 34.895,0 69.785,0 104.68,0 0,-15.73 0,-31.46 0,-47.19 -34.895,0 -69.785,0 -104.68,0 0,-30.44 0,-60.88 0,-91.32 -16.086,0 -32.172,0 -48.262,0 0,78.63 0,157.27 0,235.9" /><path
         id="path38"
         style="fill:#ffffff;fill-opacity:1;fill-rule:nonzero;stroke:none"
         d="m 711.543,1622.82 c 23.504,0 36.98,13.46 36.98,33.36 0,0.23 0,0.45 0,0.68 0,22.23 -14.418,33.7 -37.925,33.69 -15.981,0 -31.961,0 -47.942,0 0,-22.57 0,-45.15 0,-67.73 16.293,0 32.59,0 48.887,0 z m -97.156,114.58 c 33.433,0 66.863,0 100.289,0 27.887,0.01 49.515,-8.44 63.937,-23.93 12.219,-13.15 18.801,-31.69 18.801,-53.92 0,-0.23 0,-0.45 0,-0.67 0,-38.09 -19.113,-61.98 -47.012,-73.14 17.868,-28.08 35.731,-56.16 53.594,-84.24 -18.801,0 -37.605,0 -56.41,0 -15.676,25.16 -31.344,50.32 -47.016,75.48 -12.636,0 -25.277,0 -37.914,0 0,-25.16 0,-50.32 0,-75.48 -16.09,0 -32.179,0 -48.269,0 0,78.63 0,157.27 0,235.9" /><path
         id="path40"
         style="fill:#ffffff;fill-opacity:1;fill-rule:nonzero;stroke:none"
         d="m 960.695,1600.24 c -9.715,25.5 -19.425,51 -29.144,76.51 -9.715,-25.51 -19.434,-51.01 -29.145,-76.51 19.43,0 38.864,0 58.289,0 z m -50.769,138.85 c 14.832,0 29.668,0 44.5,0 31.34,-79.2 62.684,-158.4 94.024,-237.59 -16.82,0 -33.64,0 -50.458,0 -6.683,17.63 -13.375,35.27 -20.058,52.9 -30.922,0 -61.848,0 -92.77,0 -6.684,-17.63 -13.367,-35.27 -20.055,-52.9 -16.398,0 -32.8,0 -49.203,0 31.336,79.19 62.676,158.39 94.02,237.59" /><path
         id="path42"
         style="fill:#ffffff;fill-opacity:1;fill-rule:nonzero;stroke:none"
         d="m 1098.91,1689.55 c -22.25,0 -44.5,0 -66.75,0 0,15.95 0,31.9 0,47.85 60.59,0 121.18,0 181.77,0 0,-15.95 0,-31.9 0,-47.85 -22.25,0 -44.5,0 -66.75,0 0,-62.69 0,-125.37 0,-188.05 -16.09,0 -32.18,0 -48.27,0 0,62.68 0,125.36 0,188.05" /><path
         id="path44"
         style="fill:#ffffff;fill-opacity:1;fill-rule:nonzero;stroke:none"
         d="m 1244.65,1737.4 c 55.16,0 110.32,0 165.48,0 0,-15.39 0,-30.77 0,-46.17 -39.18,0 -78.35,0 -117.53,0 0,-15.95 0,-31.9 0,-47.85 34.47,0 68.94,0 103.42,0 0,-15.39 0,-30.78 0,-46.17 -34.48,0 -68.95,0 -103.42,0 0,-16.52 0,-33.03 0,-49.54 39.69,0 79.39,0 119.09,0 0,-15.39 0,-30.78 0,-46.17 -55.68,0 -111.36,0 -167.04,0 0,78.63 0,157.27 0,235.9" /><path
         id="path46"
         style="fill:#ffffff;fill-opacity:1;fill-rule:nonzero;stroke:none"
         d="m 1448.37,1737.4 c 16.08,0 32.17,0 48.26,0 0,-62.91 0,-125.81 0,-188.73 36.45,0 72.91,0 109.37,0 0,-15.72 0,-31.45 0,-47.17 -52.54,0 -105.09,0 -157.63,0 0,78.63 0,157.27 0,235.9" /><path
         id="path48"
         style="fill:#ffffff;fill-opacity:1;fill-rule:nonzero;stroke:none"
         d="m 1636.09,1737.4 c 16.1,0 32.18,0 48.26,0 0,-62.91 0,-125.81 0,-188.73 36.47,0 72.92,0 109.39,0 0,-15.72 0,-31.45 0,-47.17 -52.55,0 -105.1,0 -157.65,0 0,78.63 0,157.27 0,235.9" /><path
         id="path50"
         style="fill:#ffffff;fill-opacity:1;fill-rule:nonzero;stroke:none"
         d="m 1826.01,1737.4 c 16.09,0 32.18,0 48.27,0 0,-78.63 0,-157.27 0,-235.9 -16.09,0 -32.18,0 -48.27,0 0,78.63 0,157.27 0,235.9" /><path
         id="path52"
         style="fill:#ffffff;fill-opacity:1;fill-rule:nonzero;stroke:none"
         d="m 435.746,1211.25 c 0,0.29 0,0.57 0,0.86 0.004,38.7 -25.66,64.36 -56.535,64.36 -30.871,0 -56.969,-25.21 -56.969,-64.36 0,-0.29 0,-0.57 0,-0.86 0,-38.68 26.098,-64.38 56.969,-64.36 30.879,0 56.535,25.66 56.535,64.36 z m -179.601,0 c 0,0.29 0,0.57 0,0.86 0,77.84 50.875,120.46 106.109,120.46 35.226,-0.01 56.965,-16.1 72.621,-34.78 0,38.27 0,76.53 0,114.81 22.031,0 44.07,0 66.102,0 0,-105.83 0,-211.65 0,-317.46 -22.032,0 -44.071,0 -66.102,0 0,11.16 0,22.32 0,33.48 -16.09,-21.72 -38.27,-37.84 -72.621,-37.83 -54.359,0.01 -106.109,42.64 -106.109,120.46" /><path
         id="path54"
         style="fill:#ffffff;fill-opacity:1;fill-rule:nonzero;stroke:none"
         d="m 530.945,1286.91 c 30.008,3.06 44.789,18.27 42.614,43.05 -8.985,0 -17.973,0 -26.957,0 0,23.19 0,46.39 0,69.58 23.48,0 46.961,0 70.449,0 0,-19.57 0,-39.13 0,-58.7 0,-57.42 -28.703,-80.45 -80.449,-81.32 -1.887,9.13 -3.774,18.26 -5.657,27.39" /><path
         id="path56"
         style="fill:#ffffff;fill-opacity:1;fill-rule:nonzero;stroke:none"
         d="m 668.348,1399.54 c 22.32,0 44.644,0 66.968,0 0,-101.47 0,-202.94 0,-304.4 -22.324,0 -44.648,0 -66.968,0 0,101.46 0,202.93 0,304.4" /><path
         id="path58"
         style="fill:#ffffff;fill-opacity:1;fill-rule:nonzero;stroke:none"
         d="m 869.238,1337.8 c -30.875,0 -61.75,0 -92.625,0 0,20.57 0,41.15 0,61.74 84.075,0 168.145,0 252.217,0 0,-20.58 0,-41.16 0,-61.74 -30.873,0 -61.748,0 -92.619,0 0,-80.89 0,-161.78 0,-242.66 -22.324,0 -44.648,0 -66.973,0 0,80.88 0,161.77 0,242.66" /><path
         id="path60"
         style="fill:#ffffff;fill-opacity:1;fill-rule:nonzero;stroke:none"
         d="m 1202.75,1222.55 c -13.48,32.91 -26.96,65.81 -40.44,98.72 -13.48,-32.91 -26.96,-65.81 -40.45,-98.72 26.97,0 53.93,0 80.89,0 z m -70.45,179.17 c 20.59,0 41.17,0 61.75,0 43.49,-102.2 86.97,-204.39 130.46,-306.58 -23.34,0 -46.67,0 -70.01,0 -9.28,22.75 -18.55,45.52 -27.83,68.28 -42.91,0 -85.81,0 -128.72,0 -9.27,-22.76 -18.55,-45.53 -27.83,-68.28 -22.76,0 -45.52,0 -68.28,0 43.49,102.19 86.98,204.38 130.46,306.58" /><path
         id="path62"
         style="fill:#ffffff;fill-opacity:1;fill-rule:nonzero;stroke:none"
         d="m 1358.4,1399.54 c 22.31,0 44.64,0 66.96,0 0,-81.18 0,-162.34 0,-243.52 50.6,0 101.18,0 151.77,0 0,-20.29 0,-40.59 0,-60.88 -72.91,0 -145.82,0 -218.73,0 0,101.46 0,202.93 0,304.4" /><path
         id="path64"
         style="fill:#ffffff;fill-opacity:1;fill-rule:nonzero;stroke:none"
         d="m 1617.54,1399.54 c 22.32,0 44.65,0 66.97,0 0,-101.47 0,-202.94 0,-304.4 -22.32,0 -44.65,0 -66.97,0 0,101.46 0,202.93 0,304.4" /><path
         id="path66"
         style="fill:#ffffff;fill-opacity:1;fill-rule:nonzero;stroke:none"
         d="m 1922.36,1222.55 c -13.47,32.91 -26.96,65.81 -40.44,98.72 -13.47,-32.91 -26.96,-65.81 -40.44,-98.72 26.96,0 53.92,0 80.88,0 z m -70.44,179.17 c 20.58,0 41.16,0 61.74,0 43.49,-102.2 86.98,-204.39 130.47,-306.58 -23.34,0 -46.68,0 -70.02,0 -9.28,22.75 -18.55,45.52 -27.82,68.28 -42.91,0 -85.82,0 -128.72,0 -9.28,-22.76 -18.56,-45.53 -27.84,-68.28 -22.76,0 -45.51,0 -68.28,0 43.49,102.19 86.99,204.38 130.47,306.58" /><path
         id="path68"
         style="fill:#0b3b6a;fill-opacity:1;fill-rule:nonzero;stroke:none"
         d="M 1328.9,67.2109 H 929.449 c -9.847,0 -17.832,7.9688 -17.832,17.8282 0,9.8515 7.985,17.8319 17.832,17.8319 H 1328.9 c 9.85,0 17.83,-7.9804 17.83,-17.8319 0,-9.8594 -7.98,-17.8282 -17.83,-17.8282" /><path
         id="path70"
         style="fill:#00a650;fill-opacity:1;fill-rule:nonzero;stroke:none"
         d="m 992.234,639.031 c 0,-17.422 0,-29.031 0,-46.453 0,-14.519 -13.089,-20.328 -20.316,-31.906 -18.879,-30.5 -30.5,-84.211 -23.246,-127.781 0,0 -37.93,28.918 -34.817,14.539 7.262,-33.391 0,-85.629 0,-139.36 0,-97.218 103.055,-197.398 188.695,-197.398 7.26,0 -24.68,47.887 -26.16,49.379 -24.64,24.64 -37.72,59.508 -37.72,104.488 0,95.789 49.36,137.871 66.79,208.992 0,0 3.71,13.348 0,20.367 -7.77,14.532 -25.84,-18.859 -40.66,-11.617 -20.36,9.93 2.91,58.071 2.91,58.071 8.68,18.859 16.64,62.378 16.64,81.257 0,50.813 -25.33,72.563 -25.33,116.11 0,8.73 7.82,17.492 0,23.242 -21.79,15.969 -66.786,-84.191 -66.786,-121.93 v 0" /><path
         id="path72"
         style="fill:#ed1c24;fill-opacity:1;fill-rule:nonzero;stroke:none"
         d="m 1212.86,673.852 c 10.18,4.339 15.98,10.179 20.31,17.429 1.49,-2.89 14.52,-27.59 8.73,-58.07 -10.63,-55.609 47.89,-108.84 69.7,-162.563 18.81,2.883 23.31,7.301 34.81,0 -23.29,-50.808 26.13,-113.207 5.81,-213.359 -15.86,-78.219 -113.25,-152.43 -203.24,-152.43 -15.95,0 -31.94,1.442 -31.94,14.532 0,21.75 24.7,18.879 37.77,29.039 17.41,14.492 39.19,62.422 39.19,95.769 0,37.77 -43.57,119.039 -27.59,130.641 5.5,4.012 29.04,-23.219 29.04,-23.219 18.87,18.867 8.73,52.258 8.73,75.488 0,65.313 -42.12,107.422 -42.12,177.071 0,37.769 30.48,82.761 40.65,104.531 l 10.15,-34.859 v 0" /><path
         id="path74"
         style="fill:#ed1c24;fill-opacity:1;fill-rule:evenodd;stroke:none"
         d="m 1064.8,800.16 c -17.4,74.012 38.12,154.219 68.61,154.219 8.71,0 1.06,-17.789 1.06,-26.5 0,-31.938 11.62,-55.141 17.42,-75.449 v -29.071 c 4.35,0 4.35,-1.461 8.72,-1.461 20.28,0 24.65,-72.539 39.17,-95.789 -20.34,-13.039 -29.01,43.582 -33.37,66.789 -3.75,19.852 -16.36,15.961 -32.32,14.512 l -3.3,8.692 c 2.91,8.738 7.64,15.968 7.64,26.128 0,18.872 -14.12,56.598 -18.46,75.489 l 4.34,18.191 c -28.85,-26.91 -50.8,-66.078 -46.44,-127.051 0.82,-11.589 -7.27,-8.699 -13.07,-10.16 v 1.461 0" /></g></g></svg>